<svg xmlns="http://www.w3.org/2000/svg" viewBox="0 0 64 64">
  <defs>
    <linearGradient id="grad1" x1="0%" y1="0%" x2="100%" y2="100%">
      <stop offset="0%" style="stop-color:#00d9ff;stop-opacity:1" />
      <stop offset="100%" style="stop-color:#00ff88;stop-opacity:1" />
    </linearGradient>
  </defs>
  
  <!-- Dark background circle -->
  <circle cx="32" cy="32" r="32" fill="#0a1628"/>
  
  <!-- Wrench -->
  <path d="M 42 18 L 38 22 L 42 26 L 46 22 Z M 37 23 L 23 37 C 22 38 22 40 23 41 C 24 42 26 42 27 41 L 41 27 L 37 23 Z" 
        fill="url(#grad1)" stroke="#00d9ff" stroke-width="1"/>
  
  <!-- Screwdriver -->
  <path d="M 46 18 L 44 20 L 48 24 L 50 22 Z M 43 21 L 32 32 L 28 36 L 32 40 L 36 36 L 47 25 L 43 21 Z" 
        fill="url(#grad1)" stroke="#00ff88" stroke-width="1"/>
  
  <!-- Accent dots -->
  <circle cx="20" cy="20" r="2" fill="#00d9ff" opacity="0.6"/>
  <circle cx="44" cy="44" r="2" fill="#00ff88" opacity="0.6"/>
  <circle cx="18" cy="46" r="1.5" fill="#00d9ff" opacity="0.4"/>
</svg>
